Songs Performed:

- Man in the Box
- Real Thing
- Love, Hate, Love
- Sea of Sorrow
- Bleed the Freak

Plus:

- We Die Young (Video)
- Man in the Box (Video)


General
Complete name : Alice in Chains - Live Facelift (1991) [VHSRip] [DivX]
Format : MPEG-PS
File size : 1 024 MiB
Duration : 24mn 54s
Overall bit rate : 5 749 Kbps
Writing library : encoded by TMPGEnc DVD Author 3 Version. 3.0.5.149

Video
ID : 224 (0xE0)
Format : MPEG Video
Format version : Version 2
Format profile : Main@Main
Format settings, Matrix : Default
Duration : 24mn 54s
Bit rate mode : Variable
Bit rate : 5 328 Kbps
Nominal bit rate : 6 000 Kbps
Width : 720 pixels
Height : 576 pixels
Display aspect ratio : 4:3
Frame rate : 25.000 fps
Standard : PAL
Colorimetry : 4:2:0
Scan type : Interlaced
Scan order : Top Field First
Bits/(Pixel*Frame) : 0.514
Stream size : 949 MiB (93%)
Writing library : TMPGEnc DVD Author 3 Version. 3.0.5.149

Audio
ID : 192 (0xC0)
Format : MPEG Audio
Format version : Version 1
Format profile : Layer 2
Duration : 24mn 53s
Bit rate mode : Constant
Bit rate : 192 Kbps
Channel(s) : 2 channels
Sampling rate : 48.0 KHz
Resolution : 16 bits
Stream size : 34.2 MiB (3%)